<svg height="1em" viewBox="0 0 36 36" width="1em" class="x1lliihq x1k90msu x2h7rmj x1qfuztq x198g3q0 x10w6t97 x1td3qas">
    <defs>
        <mask id="jsc_c_g">
            <svg fill="white" viewBox="0 0 36 36" width="100%" height="100%">
                <path d="M14 11a4 4 0 0 1 8 0v5.5a4 4 0 0 1-8 0V11z"></path>
                <path d="M12.5 27.5a1 1 0 0 1 1-1h2.75a.5.5 0 0 0 .5-.5v-.66a.522.522 0 0 0-.425-.505A8.503 8.503 0 0 1 9.5 16.5V16a1 1 0 0 1 1-1h.5a1 1 0 0 1 1 1v.5a6 6 0 0 0 12 0V16a1 1 0 0 1 1-1h.5a1 1 0 0 1 1 1v.5a8.503 8.503 0 0 1-6.825 8.335.522.522 0 0 0-.425.505V26a.5.5 0 0 0 .5.5h2.75a1 1 0 0 1 1 1v.5a1 1 0 0 1-1 1h-9a1 1 0 0 1-1-1v-.5z"></path>
            </svg>
        </mask>
    </defs>
    <g mask="url(#jsc_c_g)">
        <rect fill="var(--always-white)" height="100%" width="100%"></rect>
        <rect fill="var(--primary-button-background)" height="100%" width="100%" style="transform: scaleY(0.01); transform-origin: 50% 100%;"></rect>
    </g>
</svg>